<svg width="33" height="33" viewBox="0 0 33 33" fill="none" xmlns="http://www.w3.org/2000/svg">
<circle cx="16.1818" cy="16.6121" r="15.6818" fill="white" stroke="#CCCCCC"/>
<rect width="16" height="16" transform="translate(8.59082 9.02124)" fill="white"/>
<path fill-rule="evenodd" clip-rule="evenodd" d="M11.8772 11.9738C13.0488 10.8022 14.9483 10.8022 16.1199 11.9738C17.2914 13.1454 17.2914 15.0449 16.1199 16.2164C15.6838 16.6525 15.1468 16.9263 14.5841 17.0377L16.2414 18.695C16.3528 18.1323 16.6266 17.5953 17.0627 17.1592C18.2342 15.9877 20.1337 15.9877 21.3053 17.1592C22.4769 18.3308 22.4769 20.2303 21.3053 21.4019C20.2134 22.4938 18.4892 22.568 17.3113 21.6246L17.2984 21.6376L17.0627 21.4019L11.8772 16.2164L11.6415 15.9807L11.6545 15.9678C10.7111 14.7899 10.7853 13.0657 11.8772 11.9738ZM18.0055 20.4591C18.6563 21.11 19.7116 21.11 20.3625 20.4591C21.0134 19.8082 21.0134 18.7529 20.3625 18.1021C19.7116 17.4512 18.6563 17.4512 18.0055 18.1021C17.3546 18.7529 17.3546 19.8082 18.0055 20.4591ZM15.177 15.2736C14.5262 15.9245 13.4709 15.9245 12.82 15.2736C12.1692 14.6228 12.1692 13.5675 12.82 12.9166C13.4709 12.2657 14.5262 12.2657 15.177 12.9166C15.8279 13.5675 15.8279 14.6228 15.177 15.2736Z" fill="#0D64F2"/>
</svg>
