<svg width="20" height="16" viewBox="0 0 20 16" fill="none" xmlns="http://www.w3.org/2000/svg">
<path d="M20 3.53503V13C20 13.7652 19.7077 14.5015 19.1827 15.0583C18.6578 15.615 17.9399 15.9501 17.176 15.995L17 16H3C2.23479 16.0001 1.49849 15.7077 0.941739 15.1828C0.384993 14.6578 0.0498925 13.9399 0.00500011 13.176L0 13V3.53503L9.445 9.83203L9.561 9.89803C9.69771 9.96483 9.84785 9.99955 10 9.99955C10.1522 9.99955 10.3023 9.96483 10.439 9.89803L10.555 9.83203L20 3.53503Z" fill="black"/>
<path d="M16.9998 0C18.0798 0 19.0268 0.57 19.5548 1.427L9.99982 7.797L0.444824 1.427C0.695616 1.01982 1.04011 0.6785 1.4496 0.431489C1.85908 0.184479 2.32168 0.0389373 2.79882 0.00699997L2.99982 0H16.9998Z" fill="black"/>
</svg>
