<svg width="30" height="33" viewBox="0 0 30 33" fill="none" xmlns="http://www.w3.org/2000/svg">
<path d="M14.8896 2.99471C12.3758 2.99471 9.91849 3.78353 7.82833 5.2614C5.73819 6.73927 4.10914 8.83983 3.14716 11.2974C2.18517 13.7551 1.93351 16.4594 2.42392 19.0684C2.91434 21.6774 4.12481 24.0739 5.90234 25.9548C7.67987 27.8358 9.94457 29.1167 12.41 29.6357C14.8755 30.1546 17.431 29.8884 19.7535 28.8704C22.0759 27.8524 24.0611 26.1285 25.4577 23.9167C26.8542 21.7049 27.5996 19.1046 27.5996 16.4444C27.5963 12.8784 26.2562 9.45945 23.8734 6.93788C21.4905 4.41632 18.2595 2.99818 14.8896 2.99471ZM21.189 20.8927C21.189 21.2407 21.0582 21.5745 20.8257 21.8205C20.593 22.0666 20.2778 22.2049 19.949 22.2049C19.62 22.2049 19.3045 22.0666 19.072 21.8205C18.8395 21.5745 18.709 21.2407 18.709 20.8927V14.3318L10.7232 22.7691C10.608 22.892 10.4708 22.9897 10.3197 23.0563C10.1686 23.123 10.0066 23.1572 9.84288 23.1572C9.67918 23.1572 9.51702 23.123 9.36592 23.0563C9.21481 22.9897 9.0778 22.892 8.96253 22.7691C8.73157 22.5232 8.60182 22.1907 8.60182 21.844C8.60182 21.4973 8.73157 21.1648 8.96253 20.9189L16.886 12.5473H10.686C10.3571 12.5473 10.0418 12.409 9.80928 12.163C9.57673 11.9169 9.446 11.5831 9.446 11.2351C9.446 10.8871 9.57673 10.5534 9.80928 10.3073C10.0418 10.0612 10.3571 9.92296 10.686 9.92296H18.622C19.1827 9.91595 19.7291 10.1102 20.172 10.4741C20.266 10.5333 20.3536 10.6038 20.4326 10.684C20.4798 10.7223 20.518 10.7717 20.544 10.8284C20.5799 10.8666 20.6091 10.9109 20.6308 10.9596C20.9862 11.4283 21.1789 12.0119 21.1764 12.6129L21.189 20.8927Z" fill="#0D64F2"/>
</svg>
