<svg width="31" height="31" viewBox="0 0 31 31" fill="none" xmlns="http://www.w3.org/2000/svg">
<circle cx="15.2951" cy="15.194" r="14.6818" fill="white" stroke="#CCCCCC"/>
<rect width="16" height="16" transform="translate(7.70459 7.60303)" fill="white"/>
<path fill-rule="evenodd" clip-rule="evenodd" d="M18.5713 15.5065L15.7038 20.2363L12.8363 15.5065C11.4454 13.2123 13.0614 10.2502 15.7038 10.2502C18.3462 10.2502 19.9621 13.2123 18.5713 15.5065ZM11.7422 16.1981C9.82065 13.0286 12.0532 8.93628 15.7038 8.93628C19.3544 8.93628 21.5869 13.0286 19.6654 16.1981L16.1322 22.0259C15.9352 22.3508 15.4723 22.3508 15.2753 22.0259L11.7422 16.1981ZM15.7039 12.2211C14.9932 12.2211 14.4171 12.8094 14.4171 13.5351C14.4171 14.2607 14.9932 14.849 15.7039 14.849C16.4146 14.849 16.9907 14.2607 16.9907 13.5351C16.9907 12.8094 16.4146 12.2211 15.7039 12.2211Z" fill="#0D64F2"/>
</svg>
