<svg width="31" height="31" viewBox="0 0 31 31" fill="none" xmlns="http://www.w3.org/2000/svg">
<circle cx="15.1818" cy="15.194" r="14.6818" fill="white" stroke="#CCCCCC"/>
<rect width="16" height="16" transform="translate(7.59082 7.60303)" fill="white"/>
<path fill-rule="evenodd" clip-rule="evenodd" d="M10.9238 10.2697C9.81926 10.2697 8.92383 11.1651 8.92383 12.2697V18.9364C8.92383 20.0409 9.81926 20.9364 10.9238 20.9364H20.2572C21.3617 20.9364 22.2572 20.041 22.2572 18.9364V12.2697C22.2572 11.1651 21.3617 10.2697 20.2572 10.2697H10.9238ZM10.318 11.991C10.4236 11.762 10.6551 11.603 10.9238 11.603H20.2572C20.5259 11.603 20.7574 11.762 20.863 11.991L15.9998 15.7735C15.759 15.9607 15.4219 15.9607 15.1812 15.7735L10.318 11.991ZM10.2572 13.6328V17.513L12.6656 15.506L10.2572 13.6328ZM10.3124 19.2026C10.4152 19.4383 10.6503 19.603 10.9238 19.603H20.2572C20.5307 19.603 20.7658 19.4383 20.8686 19.2026L17.4381 16.3439L16.8184 16.8259C16.0962 17.3877 15.0848 17.3877 14.3626 16.8259L13.7428 16.3439L10.3124 19.2026ZM20.9238 17.513V13.6328L18.5154 15.506L20.9238 17.513Z" fill="#0D64F2"/>
</svg>
