<svg width="33" height="33" viewBox="0 0 33 33" fill="none" xmlns="http://www.w3.org/2000/svg">
<circle cx="16.2951" cy="16.6121" r="15.6818" fill="white" stroke="#CCCCCC"/>
<rect width="15.1818" height="15.1818" transform="translate(8.70459 9.02124)" fill="white"/>
<path fill-rule="evenodd" clip-rule="evenodd" d="M22.5 11H17L16.65 11.15L16 11.79L15.35 11.15L15 11H9.5L9 11.5V21.5L9.5 22H14.79L15.65 22.85H16.35L17.21 22H22.5L23 21.5V11.5L22.5 11ZM15.5 21.3199L15.32 21.15L15 21H10V12H14.79L15.53 12.74L15.5 21.3199ZM22 21H17L16.65 21.15L16.51 21.28V12.7L17.21 12H22V21ZM14 14H11V15H14V14ZM14 18H11V19H14V18ZM11 16H14V17H11V16ZM21 14H18V15H21V14ZM18 16H21V17H18V16ZM18 18H21V19H18V18Z" fill="#0D64F2"/>
</svg>
