<svg width="29" height="28" viewBox="0 0 29 28" fill="none" xmlns="http://www.w3.org/2000/svg">
<path d="M10.535 0C8.61 0 7.035 1.575 7.035 3.5V7H0.35C0.14 7 0.035 7.14 0.035 7.315V15.75C0.035 16.73 0.805 17.5 1.785 17.5H26.285C27.265 17.5 28.035 16.73 28.035 15.75V7.315C28.035 7.105 27.895 7 27.72 7H21.035V3.5C21.035 1.575 19.46 0 17.535 0L10.535 0ZM10.535 3.5H17.535V7H10.535V3.5ZM0.035 20.685V27.685C0.035 27.86 0.175 28 0.35 28H27.685C27.86 28 28 27.86 28 27.685V20.685C27.44 20.895 26.88 21 26.25 21H1.75C1.12 21 0.56 20.86 0 20.685H0.035Z" fill="#0D64F2"/>
</svg>
